<svg viewBox="0 0 44 44" fill="none" xmlns="http://www.w3.org/2000/svg">
  <path d="M21.9999 8.42417C20.0023 6.58736 17.3876 5.56793 14.6739 5.56784C13.2375 5.56934 11.8157 5.85487 10.4901 6.408C9.16453 6.96113 7.96144 7.77095 6.95005 8.79084C2.63622 13.123 2.63805 19.899 6.95372 24.2128L20.3957 37.6548C20.7074 38.203 21.3087 38.5568 21.9999 38.5568C22.2837 38.5541 22.5629 38.4848 22.815 38.3546C23.0672 38.2244 23.2853 38.0368 23.4519 37.807L37.0461 24.2128C41.3617 19.8972 41.3617 13.123 37.0424 8.78351C36.0315 7.76549 34.8294 6.95732 33.5051 6.40546C32.1808 5.8536 30.7605 5.56894 29.3259 5.56784C26.6122 5.56828 23.9977 6.58767 21.9999 8.42417ZM34.4501 11.3758C37.3155 14.256 37.3174 18.755 34.4537 21.6205L21.9999 34.0743L9.54605 21.6205C6.68238 18.755 6.68422 14.256 9.54238 11.3832C10.9357 9.99717 12.758 9.23451 14.6739 9.23451C16.5897 9.23451 18.4047 9.99717 19.7871 11.3795L20.7037 12.2962C20.8738 12.4666 21.0759 12.6018 21.2983 12.694C21.5207 12.7862 21.7591 12.8337 21.9999 12.8337C22.2407 12.8337 22.4791 12.7862 22.7015 12.694C22.9239 12.6018 23.1259 12.4666 23.296 12.2962L24.2127 11.3795C26.9847 8.61301 31.6817 8.62034 34.4501 11.3758Z" fill="currentColor"/>
</svg>