<svg viewBox="0 0 44 44" fill="none" xmlns="http://www.w3.org/2000/svg">
  <path d="M36.6665 5.5L7.33317 5.5C5.311 5.5 3.6665 7.1445 3.6665 9.16667L3.6665 34.8333C3.6665 36.8555 5.311 38.5 7.33317 38.5H36.6665C38.6887 38.5 40.3332 36.8555 40.3332 34.8333V9.16667C40.3332 7.1445 38.6887 5.5 36.6665 5.5ZM36.6683 16.5C36.6665 16.5 36.6665 16.5 36.6683 16.5H35.8158L30.9263 9.16667H36.6665L36.6683 16.5ZM17.4825 16.5L12.593 9.16667H17.3523L22.2418 16.5H17.4825ZM26.6492 16.5L21.7597 9.16667L26.519 9.16667L31.4085 16.5H26.6492ZM7.33317 9.16667H8.18567L13.0752 16.5H7.33317L7.33317 9.16667ZM7.33317 34.8333L7.33317 20.1667H36.6665L36.6702 34.8333H7.33317Z" fill="currentColor"/>
  <path d="M18.3332 33L28.4165 27.5L18.3332 22V33Z" fill="currentColor"/>
</svg>